<svg width="60" height="59" viewBox="0 0 60 59" fill="none" xmlns="http://www.w3.org/2000/svg">
<path d="M49 51.5L33.25 35.75C32 36.75 30.5625 37.5417 28.9375 38.125C27.3125 38.7083 25.5833 39 23.75 39C19.2083 39 15.3646 37.4271 12.2188 34.2812C9.07292 31.1354 7.5 27.2917 7.5 22.75C7.5 18.2083 9.07292 14.3646 12.2188 11.2187C15.3646 8.07292 19.2083 6.5 23.75 6.5C28.2917 6.5 32.1354 8.07292 35.2812 11.2187C38.4271 14.3646 40 18.2083 40 22.75C40 24.5833 39.7083 26.3125 39.125 27.9375C38.5417 29.5625 37.75 31 36.75 32.25L52.5 48L49 51.5ZM23.75 34C26.875 34 29.5312 32.9062 31.7188 30.7187C33.9062 28.5312 35 25.875 35 22.75C35 19.625 33.9062 16.9687 31.7188 14.7812C29.5312 12.5937 26.875 11.5 23.75 11.5C20.625 11.5 17.9688 12.5937 15.7812 14.7812C13.5938 16.9687 12.5 19.625 12.5 22.75C12.5 25.875 13.5938 28.5312 15.7812 30.7187C17.9688 32.9062 20.625 34 23.75 34Z" fill="#FAB03C"/>
</svg>
